Coordinates
version=1
nRows=17
nColumns=38
inDegrees=yes

Units are S.I. units (second, meters, Newtons, ...)
Angles are in degrees.

endheader
time	pelvis_tilt	pelvis_list	pelvis_rotation	pelvis_tx	pelvis_ty	pelvis_tz	hip_flexion_r	hip_adduction_r	hip_rotation_r	knee_angle_r	ankle_angle_r	subtalar_angle_r	mtp_angle_r	hip_flexion_l	hip_adduction_l	hip_rotation_l	knee_angle_l	ankle_angle_l	subtalar_angle_l	mtp_angle_l	lumbar_extension	lumbar_bending	lumbar_rotation	arm_flex_r	arm_add_r	arm_rot_r	elbow_flex_r	pro_sup_r	wrist_flex_r	wrist_dev_r	arm_flex_l	arm_add_l	arm_rot_l	elbow_flex_l	pro_sup_l	wrist_flex_l	wrist_dev_l
      1.93000000	      0.39595490	     -0.70202728	     -3.47112710	      0.23706516	      0.88271701	      0.22894342	    -19.43422797	      2.02246476	     -8.81796230	    -21.92592845	      4.34269005	     22.21144112	  10850.57579154	     30.99960862	      3.77019236	      0.41218066	    -20.19513360	     -1.49506477	     -1.61208643	      8.95884873	     -7.38697068	      2.02313233	      6.69971736	      3.94165921	    -24.19187844	      9.90429482	     40.79589056	     86.51662706	      0.00000000	      0.00000000	     -8.53860090	    -10.74389311	     27.00465628	      2.84862888	     86.51662706	      0.00000000	      0.00000000
      1.94000000	      0.19227428	     -0.18313143	     -3.31531668	      0.25414746	      0.88220395	      0.22883344	    -18.82892409	      1.30324274	     -8.64957916	    -23.71609638	      3.10029653	     21.40192430	  11647.83553626	     31.39331079	      4.56223798	      0.97940434	    -22.04662873	     -3.02118200	     -2.99619561	      8.84171245	     -6.86246404	      1.32012712	      6.36386884	      3.32799212	    -23.91697663	      9.45930192	     41.03252944	     86.51662706	      0.00000000	      0.00000000	     -8.58750683	    -10.71196847	     26.61182760	      2.28685786	     86.51662706	      0.00000000	      0.00000000
      1.95000000	     -0.06034648	      0.40649090	     -3.09881743	      0.27069139	      0.88254624	      0.22877292	    -18.05864050	      0.52865735	     -8.43039391	    -25.70925312	      1.54821230	     20.57663296	  12488.83327047	     31.80206852	      5.37834982	      1.47322390	    -23.94393990	     -4.34925589	     -4.32263179	      8.70679985	     -6.36171979	      0.53604833	      5.98886349	      2.71654933	    -23.58750054	      9.01726460	     41.16539310	     86.51662706	      0.00000000	      0.00000000	     -8.52867662	    -10.69151321	     26.12596212	      1.74598483	     86.51662706	      0.00000000	      0.00000000
      1.96000000	     -0.33528815	      1.07043366	     -2.86381759	      0.28689279	      0.88304011	      0.22881352	    -17.09670241	     -0.28936510	     -8.14117100	    -27.95704815	     -0.51690215	     19.67941423	  13374.38979828	     32.19490517	      6.22300352	      1.85123824	    -25.82452836	     -5.35458040	     -5.47166589	      8.55198302	     -5.90658699	     -0.32877778	      5.62394261	      2.11290493	    -23.21807483	      8.58064354	     41.20080770	     86.51662706	      0.00000000	      0.00000000	     -8.35658975	    -10.69343162	     25.55799797	      1.26079599	     86.51662706	      0.00000000	      0.00000000
      1.97000000	     -0.58568828	      1.79484718	     -2.66004968	      0.30293801	      0.88303300	      0.22896803	    -15.88842524	     -1.12039779	     -7.77017003	    -30.47514661	     -3.16647563	     18.59497924	  14305.19960609	     32.52431039	      7.08644680	      2.08161939	    -27.59412664	     -5.94904507	     -6.34357534	      8.37210490	     -5.51503598	     -1.25294435	      5.31393933	      1.52265149	    -22.82634845	      8.15718668	     41.14548857	     86.51662706	      0.00000000	      0.00000000	     -8.07605692	    -10.72677876	     24.92253915	      0.87009094	     86.51662706	      0.00000000	      0.00000000
      1.98000000	     -0.80533859	      2.54634228	     -2.52631870	      0.31852489	      0.88258954	      0.22919878	    -14.40836505	     -1.92996290	     -7.30978957	    -33.27802417	     -6.31923459	     17.17184896	  15281.87440081	     32.72925269	      7.93694089	      2.14591981	    -29.16153383	     -6.08832204	     -6.86980417	      8.16100252	     -5.19856761	     -2.19527002	      5.08828209	      0.95311988	    -22.43010520	      7.76067568	     41.00367393	     86.51662706	      0.00000000	      0.00000000	     -7.70017053	    -10.79647145	     24.23608926	      0.61300788	     86.51662706	      0.00000000	      0.00000000
      1.99000000	     -1.00779368	      3.27292097	     -2.47178567	      0.33351026	      0.88235058	      0.22950805	    -12.65783570	     -2.69542712	     -6.75099735	    -36.37891637	     -9.76711980	     15.26254544	  16304.99256246	     32.75279667	      8.72311837	      2.03954012	    -30.46682606	     -5.77324344	     -7.01971671	      7.91334717	     -4.95967133	     -3.10400882	      4.95518353	      0.41485144	    -22.04505284	      7.41036246	     40.77556604	     86.51662706	      0.00000000	      0.00000000	     -7.24777987	    -10.90259696	     23.51539467	      0.52513397	     86.51662706	      0.00000000	      0.00000000
      2.00000000	     -1.18495801	      3.91980641	     -2.47894172	      0.34830195	      0.88279804	      0.22994541	    -10.64599480	     -3.40251468	     -6.08411421	    -39.76710803	    -13.23586983	     12.77412391	  17375.14474980	     32.56486453	      9.38795263	      1.76923234	    -31.49166690	     -5.04596992	     -6.80147772	      7.62596800	     -4.79131440	     -3.92953316	      4.90311912	     -0.07757112	    -21.68379476	      7.12918346	     40.45746520	     86.51662706	      0.00000000	      0.00000000	     -6.74111605	    -11.04118567	     22.77612914	      0.63501102	     86.51662706	      0.00000000	      0.00000000
      2.01000000	     -1.32401527	      4.45431692	     -2.52904229	      0.36316084	      0.88383235	      0.23050633	     -8.41087744	     -4.02483350	     -5.30698735	    -43.39959722	    -16.45210802	      9.71225638	  18492.96651918	     32.17410739	      9.88787523	      1.34937532	    -32.25390018	     -3.98130833	     -6.25751529	      7.29866545	     -4.67958901	     -4.63468346	      4.90820125	     -0.50590081	    -21.35568838	      6.94106931	     40.04337827	     86.51662706	      0.00000000	      0.00000000	     -6.20349327	    -11.20582748	     22.03205929	      0.96164894	     86.51662706	      0.00000000	      0.00000000
      2.02000000	     -1.43456461	      4.87385539	     -2.62145425	      0.37778520	      0.88497922	      0.23113023	     -6.03057923	     -4.51548455	     -4.43473192	    -47.19652841	    -19.18527162	      6.20037895	  19659.15321571	     31.61966195	     10.20529436	      0.79966377	    -32.79426780	     -2.67448981	     -5.45629630	      6.93459582	     -4.60863887	     -5.19896677	      4.94347480	     -0.85033602	    -21.06697246	      6.86779400	     39.52748385	     86.51662706	      0.00000000	      0.00000000	     -5.65706614	    -11.38952151	     21.29474256	      1.51340148	     86.51662706	      0.00000000	      0.00000000
      2.03000000	     -1.53494735	      5.18998601	     -2.76933076	      0.39187623	      0.88586582	      0.23178387	     -3.58733549	     -4.82494007	     -3.50259663	    -51.03009326	    -21.25858388	      2.46574836	  20874.46017547	     30.94882299	     10.34825956	      0.14564846	    -33.16156109	     -1.22752297	     -4.48231279	      6.54030869	     -4.56588307	     -5.61674995	      4.98596228	     -1.09329618	    -20.82082205	      6.92583047	     38.90677015	     86.51662706	      0.00000000	      0.00000000	     -5.12089793	    -11.58632397	     20.57372171	      2.28822179	     86.51662706	      0.00000000	      0.00000000
      2.04000000	     -1.63583109	      5.40725573	     -2.98294937	      0.40558371	      0.88671465	      0.23250176	     -1.13509458	     -4.92976921	     -2.55706539	    -54.73144807	    -22.54865625	     -1.20226480	  22139.69600700	     30.19645624	     10.34130502	     -0.57841751	    -33.39933750	      0.26366930	     -3.42571490	      6.12550108	     -4.54578256	     -5.89267328	      5.01929484	     -1.22393329	    -20.61742102	      7.12364405	     38.18330699	     86.51662706	      0.00000000	      0.00000000	     -4.60961084	    -11.79247939	     19.87709113	      3.27506839	     86.51662706	      0.00000000	      0.00000000
      2.05000000	     -1.73756890	      5.52134868	     -3.25889876	      0.41920071	      0.88812425	      0.23331552	      1.30337698	     -4.84433836	     -1.64141259	    -58.11880176	    -22.99027835	     -4.50759081	  23455.71520552	     29.37740753	     10.21582098	     -1.32666218	    -33.53598332	      1.71935092	     -2.37264687	      5.70247322	     -4.55074323	     -6.03761955	      5.03243160	     -1.24199857	    -20.45420593	      7.45980707	     37.36577290	     86.51662706	      0.00000000	      0.00000000	     -4.13283723	    -12.00682052	     19.21222767	      4.45605858	     86.51662706	      0.00000000	      0.00000000
      2.06000000	     -1.82603404	      5.53357700	     -3.57997323	      0.43273644	      0.89018107	      0.23420569	      3.72649041	     -4.60846442	     -0.78642730	    -61.03498753	    -22.58525185	     -7.20271245	  24823.41321215	     28.49046012	     10.00512277	     -2.04159132	    -33.57970873	      3.08185081	     -1.39722133	      5.28521600	     -4.58818413	     -6.06641551	      5.01664641	     -1.15988057	    -20.32621928	      7.92224445	     36.46996765	     86.51662706	      0.00000000	      0.00000000	     -3.69557680	    -12.23042943	     18.58642963	      5.80887640	     86.51662706	      0.00000000	      0.00000000
      2.07000000	     -1.88303419	      5.45916526	     -3.92170965	      0.44592016	      0.89234048	      0.23514289	      6.12998204	     -4.26569892	     -0.00983462	    -63.39741914	    -21.40463174	     -9.13450901	  26243.72565599	     27.52498511	      9.74350136	     -2.65905080	    -33.51970884	      4.31670806	     -0.55589792	      4.88813028	     -4.66431478	     -5.99657013	      4.96316834	     -1.00211920	    -20.22651634	      8.48877139	     35.51818357	     86.51662706	      0.00000000	      0.00000000	     -3.29920849	    -12.46582625	     18.00722584	      7.30901120	     86.51662706	      0.00000000	      0.00000000
      2.08000000	     -1.89982894	      5.32150711	     -4.25794199	      0.45870701	      0.89420696	      0.23610536	      8.49018220	     -3.84795949	      0.67879510	    -65.22943471	    -19.57639526	    -10.27159896	  27717.63202139	     26.46553578	      9.46530023	     -3.11778147	    -33.33332429	      5.40984728	      0.11532425	      4.52455670	     -4.77775736	     -5.84715755	      4.86284707	     -0.80225027	    -20.14681701	      9.12887375	     34.53753297	     86.51662706	      0.00000000	      0.00000000	     -2.94251347	    -12.71612726	     17.48219399	      8.93158465	     86.51662706	      0.00000000	      0.00000000
      2.09000000	     -1.88445221	      5.14177197	     -4.56489276	      0.47147350	      0.89603557	      0.23705462	     10.76429137	     -3.37521564	      1.27223588	    -66.63686204	    -17.26558058	    -10.70249982	  29246.16160987	     25.29681344	      9.20169699	     -3.37071272	    -32.99710269	      6.36251444	      0.60097062	      4.20543318	     -4.91751578	     -5.63747995	      4.70755744	     -0.59754056	    -20.07864287	      9.80647383	     33.55753267	     86.51662706	      0.00000000	      0.00000000	     -2.62214471	    -12.98453550	     17.01824350	     10.65268373	     86.51662706	      0.00000000	      0.00000000
